<?xml version="1.0" encoding="UTF-8" standalone="no"?>
<!DOCTYPE svg PUBLIC "-//W3C//DTD SVG 1.1//EN"
 "http://www.w3.org/Graphics/SVG/1.1/DTD/svg11.dtd">
<!-- Generated by graphviz version 2.40.1 (20161225.0304)
 -->
<!-- Title: Marketplace Pages: 1 -->
<svg width="1080pt" height="663pt"
 viewBox="0.00 0.00 1079.66 662.60" xmlns="http://www.w3.org/2000/svg" xmlns:xlink="http://www.w3.org/1999/xlink">
<g id="graph0" class="graph" transform="scale(1 1) rotate(0) translate(28.8 633.8)">
<title>Marketplace</title>
<polygon fill="#ffffff" stroke="transparent" points="-28.8,28.8 -28.8,-633.8 1050.8565,-633.8 1050.8565,28.8 -28.8,28.8"/>
<text text-anchor="middle" x="511.0283" y="-590.6" font-family="Arial Bold" font-size="13.00" fill="#000000">Marketplace entities</text>
<!-- m_Address -->
<g id="node1" class="node">
<title>m_Address</title>
<path fill="none" stroke="#000000" d="M705,-125.5C705,-125.5 969,-125.5 969,-125.5 975,-125.5 981,-131.5 981,-137.5 981,-137.5 981,-253.5 981,-253.5 981,-259.5 975,-265.5 969,-265.5 969,-265.5 705,-265.5 705,-265.5 699,-265.5 693,-259.5 693,-253.5 693,-253.5 693,-137.5 693,-137.5 693,-131.5 699,-125.5 705,-125.5"/>
<text text-anchor="start" x="740.5" y="-192.7" font-family="Arial Bold" font-size="11.00" fill="#000000">Address</text>
<polyline fill="none" stroke="#000000" points="837,-125.5 837,-265.5 "/>
<text text-anchor="start" x="844" y="-252.5" font-family="Arial" font-size="10.00" fill="#000000">address_line </text>
<text text-anchor="start" x="902" y="-252.5" font-family="Arial Italic" font-size="10.00" fill="#999999">string</text>
<text text-anchor="start" x="844" y="-239.5" font-family="Arial" font-size="10.00" fill="#000000">building_number </text>
<text text-anchor="start" x="918" y="-239.5" font-family="Arial Italic" font-size="10.00" fill="#999999">integer</text>
<text text-anchor="start" x="844" y="-226.5" font-family="Arial" font-size="10.00" fill="#000000">city </text>
<text text-anchor="start" x="863" y="-226.5" font-family="Arial Italic" font-size="10.00" fill="#999999">string</text>
<text text-anchor="start" x="844" y="-213.5" font-family="Arial" font-size="10.00" fill="#000000">country </text>
<text text-anchor="start" x="880" y="-213.5" font-family="Arial Italic" font-size="10.00" fill="#999999">string</text>
<text text-anchor="start" x="844" y="-200.5" font-family="Arial" font-size="10.00" fill="#000000">datails </text>
<text text-anchor="start" x="876" y="-200.5" font-family="Arial Italic" font-size="10.00" fill="#999999">string</text>
<text text-anchor="start" x="844" y="-187.5" font-family="Arial" font-size="10.00" fill="#000000">id </text>
<text text-anchor="start" x="855" y="-187.5" font-family="Arial Italic" font-size="10.00" fill="#999999">integer (8) PK</text>
<text text-anchor="start" x="844" y="-174.5" font-family="Arial" font-size="10.00" fill="#000000">neighborhood </text>
<text text-anchor="start" x="905" y="-174.5" font-family="Arial Italic" font-size="10.00" fill="#999999">string</text>
<text text-anchor="start" x="844" y="-161.5" font-family="Arial" font-size="10.00" fill="#000000">state </text>
<text text-anchor="start" x="869" y="-161.5" font-family="Arial Italic" font-size="10.00" fill="#999999">string</text>
<text text-anchor="start" x="844" y="-148.5" font-family="Arial" font-size="10.00" fill="#000000">user_id </text>
<text text-anchor="start" x="879" y="-148.5" font-family="Arial Italic" font-size="10.00" fill="#999999">integer (8) FK</text>
<text text-anchor="start" x="844" y="-135.5" font-family="Arial" font-size="10.00" fill="#000000">zip_code </text>
<text text-anchor="start" x="887" y="-135.5" font-family="Arial Italic" font-size="10.00" fill="#999999">string</text>
</g>
<!-- m_PaperTrail::Version -->
<g id="node4" class="node">
<title>m_PaperTrail::Version</title>
<path fill="none" stroke="#000000" d="M388,-.5C388,-.5 652,-.5 652,-.5 658,-.5 664,-6.5 664,-12.5 664,-12.5 664,-76.5 664,-76.5 664,-82.5 658,-88.5 652,-88.5 652,-88.5 388,-88.5 388,-88.5 382,-88.5 376,-82.5 376,-76.5 376,-76.5 376,-12.5 376,-12.5 376,-6.5 382,-.5 388,-.5"/>
<text text-anchor="start" x="394.5" y="-41.7" font-family="Arial Bold" font-size="11.00" fill="#000000">PaperTrail::Version</text>
<polyline fill="none" stroke="#000000" points="520,-.5 520,-88.5 "/>
<text text-anchor="start" x="527" y="-75.5" font-family="Arial" font-size="10.00" fill="#000000">event </text>
<text text-anchor="start" x="555" y="-75.5" font-family="Arial Italic" font-size="10.00" fill="#999999">string ∗</text>
<text text-anchor="start" x="527" y="-62.5" font-family="Arial" font-size="10.00" fill="#000000">id </text>
<text text-anchor="start" x="538" y="-62.5" font-family="Arial Italic" font-size="10.00" fill="#999999">integer (8) PK</text>
<text text-anchor="start" x="527" y="-49.5" font-family="Arial" font-size="10.00" fill="#000000">item_id </text>
<text text-anchor="start" x="562" y="-49.5" font-family="Arial Italic" font-size="10.00" fill="#999999">integer ∗ FK</text>
<text text-anchor="start" x="527" y="-36.5" font-family="Arial" font-size="10.00" fill="#000000">item_type </text>
<text text-anchor="start" x="573" y="-36.5" font-family="Arial Italic" font-size="10.00" fill="#999999">string ∗</text>
<text text-anchor="start" x="527" y="-23.5" font-family="Arial" font-size="10.00" fill="#000000">object </text>
<text text-anchor="start" x="557" y="-23.5" font-family="Arial Italic" font-size="10.00" fill="#999999">text</text>
<text text-anchor="start" x="527" y="-10.5" font-family="Arial" font-size="10.00" fill="#000000">whodunnit </text>
<text text-anchor="start" x="574" y="-10.5" font-family="Arial Italic" font-size="10.00" fill="#999999">string</text>
</g>
<!-- m_Address&#45;&gt;m_PaperTrail::Version -->
<g id="edge1" class="edge">
<title>m_Address&#45;&gt;m_PaperTrail::Version</title>
<path fill="none" stroke="#000000" d="M692.8774,-126.8486C668.5512,-115.261 643.7694,-103.4564 620.8498,-92.5388"/>
<polygon fill="#000000" stroke="#000000" points="621.9741,-89.5854 612.4942,-88.5588 619.2648,-95.2731 621.9741,-89.5854"/>
</g>
<!-- m_Category -->
<g id="node2" class="node">
<title>m_Category</title>
<path fill="none" stroke="#000000" d="M200,-367.5C200,-367.5 464,-367.5 464,-367.5 470,-367.5 476,-373.5 476,-379.5 476,-379.5 476,-391.5 476,-391.5 476,-397.5 470,-403.5 464,-403.5 464,-403.5 200,-403.5 200,-403.5 194,-403.5 188,-397.5 188,-391.5 188,-391.5 188,-379.5 188,-379.5 188,-373.5 194,-367.5 200,-367.5"/>
<text text-anchor="start" x="233.5" y="-382.7" font-family="Arial Bold" font-size="11.00" fill="#000000">Category</text>
<polyline fill="none" stroke="#000000" points="332,-367.5 332,-403.5 "/>
<text text-anchor="start" x="339" y="-390.5" font-family="Arial" font-size="10.00" fill="#000000">id </text>
<text text-anchor="start" x="350" y="-390.5" font-family="Arial Italic" font-size="10.00" fill="#999999">integer (8) PK</text>
<text text-anchor="start" x="339" y="-377.5" font-family="Arial" font-size="10.00" fill="#000000">name </text>
<text text-anchor="start" x="367" y="-377.5" font-family="Arial Italic" font-size="10.00" fill="#999999">string</text>
</g>
<!-- m_Coupon -->
<g id="node3" class="node">
<title>m_Coupon</title>
<path fill="none" stroke="#000000" d="M12,-158C12,-158 276,-158 276,-158 282,-158 288,-164 288,-170 288,-170 288,-221 288,-221 288,-227 282,-233 276,-233 276,-233 12,-233 12,-233 6,-233 0,-227 0,-221 0,-221 0,-170 0,-170 0,-164 6,-158 12,-158"/>
<text text-anchor="start" x="48.5" y="-192.7" font-family="Arial Bold" font-size="11.00" fill="#000000">Coupon</text>
<polyline fill="none" stroke="#000000" points="144,-158 144,-233 "/>
<text text-anchor="start" x="151" y="-219.5" font-family="Arial" font-size="10.00" fill="#000000">category_id </text>
<text text-anchor="start" x="205" y="-219.5" font-family="Arial Italic" font-size="10.00" fill="#999999">integer (8) FK</text>
<text text-anchor="start" x="151" y="-206.5" font-family="Arial" font-size="10.00" fill="#000000">code </text>
<text text-anchor="start" x="176" y="-206.5" font-family="Arial Italic" font-size="10.00" fill="#999999">string PK</text>
<text text-anchor="start" x="151" y="-193.5" font-family="Arial" font-size="10.00" fill="#000000">discount_amount </text>
<text text-anchor="start" x="229" y="-193.5" font-family="Arial Italic" font-size="10.00" fill="#999999">integer</text>
<text text-anchor="start" x="151" y="-180.5" font-family="Arial" font-size="10.00" fill="#000000">discount_type </text>
<text text-anchor="start" x="215" y="-180.5" font-family="Arial Italic" font-size="10.00" fill="#999999">integer</text>
<text text-anchor="start" x="151" y="-167.5" font-family="Arial" font-size="10.00" fill="#000000">expiration_date </text>
<text text-anchor="start" x="221" y="-167.5" font-family="Arial Italic" font-size="10.00" fill="#999999">datetime</text>
</g>
<!-- m_Category&#45;&gt;m_Coupon -->
<g id="edge9" class="edge">
<title>m_Category&#45;&gt;m_Coupon</title>
<path fill="none" stroke="#000000" d="M313.9738,-367.282C285.1577,-338.1594 227.8908,-280.2833 187.8259,-239.7922"/>
<polygon fill="#000000" stroke="#000000" points="189.8719,-237.3813 181.3025,-233.1993 185.3936,-241.8125 189.8719,-237.3813"/>
</g>
<!-- m_Category&#45;&gt;m_PaperTrail::Version -->
<g id="edge2" class="edge">
<title>m_Category&#45;&gt;m_PaperTrail::Version</title>
<path fill="none" stroke="#000000" d="M328.6088,-367.3974C321.153,-321.9955 307.9575,-201.4609 361,-125 369.3247,-112.9999 379.9852,-102.6883 391.8372,-93.8504"/>
<polygon fill="#000000" stroke="#000000" points="393.8269,-96.3016 399.3604,-88.5361 390.192,-91.1559 393.8269,-96.3016"/>
</g>
<!-- m_Product -->
<g id="node5" class="node">
<title>m_Product</title>
<path fill="none" stroke="#000000" d="M388,-132C388,-132 652,-132 652,-132 658,-132 664,-138 664,-144 664,-144 664,-247 664,-247 664,-253 658,-259 652,-259 652,-259 388,-259 388,-259 382,-259 376,-253 376,-247 376,-247 376,-144 376,-144 376,-138 382,-132 388,-132"/>
<text text-anchor="start" x="424.5" y="-192.7" font-family="Arial Bold" font-size="11.00" fill="#000000">Product</text>
<polyline fill="none" stroke="#000000" points="520,-132 520,-259 "/>
<text text-anchor="start" x="527" y="-245.5" font-family="Arial" font-size="10.00" fill="#000000">bar_code </text>
<text text-anchor="start" x="570" y="-245.5" font-family="Arial Italic" font-size="10.00" fill="#999999">string ∗</text>
<text text-anchor="start" x="527" y="-232.5" font-family="Arial" font-size="10.00" fill="#000000">category_id </text>
<text text-anchor="start" x="581" y="-232.5" font-family="Arial Italic" font-size="10.00" fill="#999999">integer (8) FK</text>
<text text-anchor="start" x="527" y="-219.5" font-family="Arial" font-size="10.00" fill="#000000">code </text>
<text text-anchor="start" x="552" y="-219.5" font-family="Arial Italic" font-size="10.00" fill="#999999">string ∗</text>
<text text-anchor="start" x="527" y="-206.5" font-family="Arial" font-size="10.00" fill="#000000">description </text>
<text text-anchor="start" x="578" y="-206.5" font-family="Arial Italic" font-size="10.00" fill="#999999">text</text>
<text text-anchor="start" x="527" y="-193.5" font-family="Arial" font-size="10.00" fill="#000000">id </text>
<text text-anchor="start" x="538" y="-193.5" font-family="Arial Italic" font-size="10.00" fill="#999999">integer (8) PK</text>
<text text-anchor="start" x="527" y="-180.5" font-family="Arial" font-size="10.00" fill="#000000">manufacturer </text>
<text text-anchor="start" x="588" y="-180.5" font-family="Arial Italic" font-size="10.00" fill="#999999">string ∗</text>
<text text-anchor="start" x="527" y="-167.5" font-family="Arial" font-size="10.00" fill="#000000">model </text>
<text text-anchor="start" x="557" y="-167.5" font-family="Arial Italic" font-size="10.00" fill="#999999">string ∗</text>
<text text-anchor="start" x="527" y="-154.5" font-family="Arial" font-size="10.00" fill="#000000">price </text>
<text text-anchor="start" x="552" y="-154.5" font-family="Arial Italic" font-size="10.00" fill="#999999">float</text>
<text text-anchor="start" x="527" y="-141.5" font-family="Arial" font-size="10.00" fill="#000000">title </text>
<text text-anchor="start" x="546" y="-141.5" font-family="Arial Italic" font-size="10.00" fill="#999999">string ∗</text>
</g>
<!-- m_Category&#45;&gt;m_Product -->
<g id="edge8" class="edge">
<title>m_Category&#45;&gt;m_Product</title>
<path fill="none" stroke="#000000" d="M350.0262,-367.282C373.0403,-344.0231 414.2017,-302.4238 450.254,-265.988"/>
<polygon fill="#000000" stroke="#000000" points="452.8296,-267.8635 456.9207,-259.2503 448.3513,-263.4323 452.8296,-267.8635"/>
</g>
<!-- m_Coupon&#45;&gt;m_PaperTrail::Version -->
<g id="edge3" class="edge">
<title>m_Coupon&#45;&gt;m_PaperTrail::Version</title>
<path fill="none" stroke="#000000" d="M230.7723,-157.9607C256.2247,-147.136 284.1611,-135.4355 310,-125 337.1502,-114.0349 366.4145,-102.5861 394.2244,-91.8778"/>
<polygon fill="#000000" stroke="#000000" points="395.5339,-94.7492 402.8044,-88.5797 393.2734,-88.8687 395.5339,-94.7492"/>
</g>
<!-- m_Product&#45;&gt;m_PaperTrail::Version -->
<g id="edge4" class="edge">
<title>m_Product&#45;&gt;m_PaperTrail::Version</title>
<path fill="none" stroke="#000000" d="M520,-131.9C520,-120.5657 520,-108.8642 520,-97.8524"/>
<polygon fill="#000000" stroke="#000000" points="523.1501,-97.7878 520,-88.7879 516.8501,-97.7879 523.1501,-97.7878"/>
</g>
<!-- m_Role -->
<g id="node6" class="node">
<title>m_Role</title>
<path fill="none" stroke="#000000" d="M705,-505.5C705,-505.5 969,-505.5 969,-505.5 975,-505.5 981,-511.5 981,-517.5 981,-517.5 981,-555.5 981,-555.5 981,-561.5 975,-567.5 969,-567.5 969,-567.5 705,-567.5 705,-567.5 699,-567.5 693,-561.5 693,-555.5 693,-555.5 693,-517.5 693,-517.5 693,-511.5 699,-505.5 705,-505.5"/>
<text text-anchor="start" x="750.5" y="-533.7" font-family="Arial Bold" font-size="11.00" fill="#000000">Role</text>
<polyline fill="none" stroke="#000000" points="837,-505.5 837,-567.5 "/>
<text text-anchor="start" x="844" y="-554.5" font-family="Arial" font-size="10.00" fill="#000000">id </text>
<text text-anchor="start" x="855" y="-554.5" font-family="Arial Italic" font-size="10.00" fill="#999999">integer (8) PK</text>
<text text-anchor="start" x="844" y="-541.5" font-family="Arial" font-size="10.00" fill="#000000">name </text>
<text text-anchor="start" x="872" y="-541.5" font-family="Arial Italic" font-size="10.00" fill="#999999">string</text>
<text text-anchor="start" x="844" y="-528.5" font-family="Arial" font-size="10.00" fill="#000000">resource_id </text>
<text text-anchor="start" x="898" y="-528.5" font-family="Arial Italic" font-size="10.00" fill="#999999">integer (8)</text>
<text text-anchor="start" x="844" y="-515.5" font-family="Arial" font-size="10.00" fill="#000000">resource_type </text>
<text text-anchor="start" x="909" y="-515.5" font-family="Arial Italic" font-size="10.00" fill="#999999">string</text>
</g>
<!-- m_User -->
<g id="node7" class="node">
<title>m_User</title>
<path fill="none" stroke="#000000" d="M696.5,-302.5C696.5,-302.5 977.5,-302.5 977.5,-302.5 983.5,-302.5 989.5,-308.5 989.5,-314.5 989.5,-314.5 989.5,-456.5 989.5,-456.5 989.5,-462.5 983.5,-468.5 977.5,-468.5 977.5,-468.5 696.5,-468.5 696.5,-468.5 690.5,-468.5 684.5,-462.5 684.5,-456.5 684.5,-456.5 684.5,-314.5 684.5,-314.5 684.5,-308.5 690.5,-302.5 696.5,-302.5"/>
<text text-anchor="start" x="742" y="-382.7" font-family="Arial Bold" font-size="11.00" fill="#000000">User</text>
<polyline fill="none" stroke="#000000" points="828.5,-302.5 828.5,-468.5 "/>
<text text-anchor="start" x="836" y="-455.5" font-family="Arial" font-size="10.00" fill="#000000">birth_date </text>
<text text-anchor="start" x="882" y="-455.5" font-family="Arial Italic" font-size="10.00" fill="#999999">datetime</text>
<text text-anchor="start" x="836" y="-442.5" font-family="Arial" font-size="10.00" fill="#000000">email </text>
<text text-anchor="start" x="863" y="-442.5" font-family="Arial Italic" font-size="10.00" fill="#999999">string ∗ U</text>
<text text-anchor="start" x="836" y="-429.5" font-family="Arial" font-size="10.00" fill="#000000">encrypted_password </text>
<text text-anchor="start" x="929" y="-429.5" font-family="Arial Italic" font-size="10.00" fill="#999999">string ∗</text>
<text text-anchor="start" x="836" y="-416.5" font-family="Arial" font-size="10.00" fill="#000000">first_name </text>
<text text-anchor="start" x="885" y="-416.5" font-family="Arial Italic" font-size="10.00" fill="#999999">string</text>
<text text-anchor="start" x="836" y="-403.5" font-family="Arial" font-size="10.00" fill="#000000">gender </text>
<text text-anchor="start" x="869" y="-403.5" font-family="Arial Italic" font-size="10.00" fill="#999999">string</text>
<text text-anchor="start" x="836" y="-390.5" font-family="Arial" font-size="10.00" fill="#000000">id </text>
<text text-anchor="start" x="847" y="-390.5" font-family="Arial Italic" font-size="10.00" fill="#999999">integer (8) PK</text>
<text text-anchor="start" x="836" y="-377.5" font-family="Arial" font-size="10.00" fill="#000000">last_name </text>
<text text-anchor="start" x="885" y="-377.5" font-family="Arial Italic" font-size="10.00" fill="#999999">string</text>
<text text-anchor="start" x="836" y="-364.5" font-family="Arial" font-size="10.00" fill="#000000">phone </text>
<text text-anchor="start" x="866" y="-364.5" font-family="Arial Italic" font-size="10.00" fill="#999999">string</text>
<text text-anchor="start" x="836" y="-351.5" font-family="Arial" font-size="10.00" fill="#000000">remember_created_at </text>
<text text-anchor="start" x="934" y="-351.5" font-family="Arial Italic" font-size="10.00" fill="#999999">datetime</text>
<text text-anchor="start" x="836" y="-338.5" font-family="Arial" font-size="10.00" fill="#000000">reset_password_sent_at </text>
<text text-anchor="start" x="945" y="-338.5" font-family="Arial Italic" font-size="10.00" fill="#999999">datetime</text>
<text text-anchor="start" x="836" y="-325.5" font-family="Arial" font-size="10.00" fill="#000000">reset_password_token </text>
<text text-anchor="start" x="937" y="-325.5" font-family="Arial Italic" font-size="10.00" fill="#999999">string</text>
<text text-anchor="start" x="836" y="-312.5" font-family="Arial" font-size="10.00" fill="#000000">timezone </text>
<text text-anchor="start" x="879" y="-312.5" font-family="Arial Italic" font-size="10.00" fill="#999999">string</text>
</g>
<!-- m_Role&#45;&gt;m_User -->
<g id="edge7" class="edge">
<title>m_Role&#45;&gt;m_User</title>
<path fill="none" stroke="#000000" d="M837,-495.9688C837,-490.257 837,-484.2025 837,-477.9859"/>
<polygon fill="#000000" stroke="#000000" points="833.8501,-496.2127 837,-505.2127 840.1501,-496.2127 833.8501,-496.2127"/>
<polygon fill="#000000" stroke="#000000" points="840.1501,-477.7829 837,-468.783 833.8501,-477.783 840.1501,-477.7829"/>
</g>
<!-- m_User&#45;&gt;m_Address -->
<g id="edge6" class="edge">
<title>m_User&#45;&gt;m_Address</title>
<path fill="none" stroke="#000000" d="M837,-302.4396C837,-290.1574 837,-277.6046 837,-265.6201"/>
</g>
<!-- m_User&#45;&gt;m_PaperTrail::Version -->
<g id="edge5" class="edge">
<title>m_User&#45;&gt;m_PaperTrail::Version</title>
<path fill="none" stroke="#000000" d="M970.6274,-302.1835C980.6815,-291.1935 989.4434,-279.1297 996,-266 1023.9972,-209.9351 1036.4491,-172.8642 996,-125 974.9956,-100.1451 804.2877,-75.82 673.2469,-60.5295"/>
<polygon fill="#000000" stroke="#000000" points="673.5821,-57.3973 664.2792,-59.4899 672.8566,-63.6554 673.5821,-57.3973"/>
</g>
</g>
</svg>
